<svg id="visual" viewBox="0 0 2000 1200" width="2000" height="1200" xmlns="http://www.w3.org/2000/svg" xmlns:xlink="http://www.w3.org/1999/xlink" version="1.1"><rect x="0" y="0" width="2000" height="1200" fill="#ebebeb"></rect><defs><linearGradient id="grad1_0" x1="40%" y1="0%" x2="100%" y2="100%"><stop offset="16.666666666666664%" stop-color="#ebebeb" stop-opacity="1"></stop><stop offset="83.33333333333334%" stop-color="#ebebeb" stop-opacity="1"></stop></linearGradient></defs><defs><linearGradient id="grad2_0" x1="0%" y1="0%" x2="60%" y2="100%"><stop offset="16.666666666666664%" stop-color="#ebebeb" stop-opacity="1"></stop><stop offset="83.33333333333334%" stop-color="#ebebeb" stop-opacity="1"></stop></linearGradient></defs><g transform="translate(2000, 0)"><path d="M0 349.9C-58.6 336.8 -117.2 323.7 -171 296.2C-224.8 268.7 -274 226.7 -303 174.9C-332 123.2 -340.9 61.6 -349.9 0L0 0Z" fill="#0984E2"></path></g><g transform="translate(0, 1200)"><path d="M0 -349.9C60.9 -340.5 121.8 -331.2 174.9 -303C228.1 -274.8 273.5 -227.6 301.4 -174C329.2 -120.4 339.6 -60.2 349.9 0L0 0Z" fill="#0984E2"></path></g></svg>